<svg viewBox="0 0 1133.86 1133.86" xmlns="http://www.w3.org/2000/svg" xmlns:xlink="http://www.w3.org/1999/xlink"><linearGradient id="a" gradientUnits="userSpaceOnUse" x1="8.53" x2="707.37" y1="156.03" y2="156.03"><stop offset="0" stop-color="#6500ff"/><stop offset=".16" stop-color="#6a09ff"/><stop offset=".43" stop-color="#7623ff"/><stop offset=".77" stop-color="#8a4cff"/><stop offset=".99" stop-color="#996bff"/></linearGradient><linearGradient id="b" gradientUnits="userSpaceOnUse" x1="256.63" x2="256.63" y1="84.72" y2="83.01"><stop offset="0" stop-color="#6500ff"/><stop offset=".21" stop-color="#6909ff"/><stop offset=".55" stop-color="#7323ff"/><stop offset=".98" stop-color="#844cff"/><stop offset=".99" stop-color="#844dff"/></linearGradient><linearGradient id="c" gradientUnits="userSpaceOnUse" x1="460.37" x2="460.37" y1="1080.11" y2="82.82"><stop offset="0" stop-color="#6500ff"/><stop offset=".16" stop-color="#6909ff"/><stop offset=".43" stop-color="#7523ff"/><stop offset=".77" stop-color="#894cff"/><stop offset=".99" stop-color="#976bff"/></linearGradient><linearGradient id="d" gradientUnits="userSpaceOnUse" x1="951.18" x2="951.18" y1="413.66" y2="82.76"><stop offset="0" stop-color="#ff6e06"/><stop offset=".28" stop-color="#ff770c"/><stop offset=".75" stop-color="#ff911c"/><stop offset="1" stop-color="#ffa126"/></linearGradient><linearGradient id="e" x1="573.51" x2="573.51" xlink:href="#d" y1="598.6" y2="350.23"/><path d="m646.21 82.77h-579.6c-1 0-2 0-3.06.08h-.85q-1.21.07-2.42.18l-.67.06q-1.48.15-2.94.37l-.71.12q-1.14.18-2.28.41l-.86.17c-.95.2-1.89.41-2.82.65l-.29.08c-.84.22-1.68.46-2.51.71l-.91.29q-1 .33-2 .68l-.78.28q-1.28.47-2.54 1l-.9.39q-.87.38-1.74.78l-1 .47q-1 .5-2 1l-1.09.6c-.55.31-1.1.62-1.64.94l-1.08.66-1.35.87-1 .68q-1 .69-2 1.41l-1.17.93-1.06.83-1.14.93-1 .87q-1 .85-1.91 1.74l-.82.78q-.59.57-1.16 1.16l-.71.74q-1.22 1.29-2.37 2.64l-.23.27c-.38.46-.76.92-1.13 1.39l-.54.69c-.37.48-.74 1-1.09 1.44l-.26.37q-1.07 1.49-2.06 3l-.38.59q-.5.79-1 1.6l-.36.62-.28.5 142.4 81.26h-24.35l52.31 31.31a15.49 15.49 0 0 1 12.24-23.72h449.96c1.59.12 3.18.2 4.8.2a61.51 61.51 0 0 0 .36-123z" fill="url(#a)"/><path d="m255.74 84.72c8.54-1.35 14-1.68 14-1.68l-26.24-.04a83 83 0 0 1 12.24 1.72z" fill="url(#b)"/><path d="m859.3 453.84a61.41 61.41 0 0 0 -53.9 31.95l-226.4 392.12a15.5 15.5 0 0 1 -26.21.87l-143.86-249.11a61.52 61.52 0 0 0 -4.16-8.21l-239.33-415.46a83 83 0 0 1 67.38-123l-162.49-.15a66.91 66.91 0 0 0 -29.53 5.89l-.3.14q-1.81.83-3.57 1.76h-.06c-.53.28-1 .57-1.56.86l-.78.45q-1.11.65-2.2 1.35l-1.09.7-1.24.85-1.19.85-1.25.93q-.84.65-1.66 1.32l-.89.74q-.76.65-1.5 1.32l-.61.55c-.65.6-1.29 1.22-1.91 1.85l-.66.67q-.85.87-1.66 1.78l-.31.34c-.63.71-1.24 1.44-1.84 2.18l-.52.62c-.58.73-1.14 1.47-1.69 2.22l-.11.14c-.58.8-1.14 1.63-1.69 2.47l-.41.63c-.55.85-1.08 1.71-1.59 2.6-.19.32-.35.65-.53 1l-1.25-.71a66.6 66.6 0 0 0 .75 67.37h-.08l5.97 10.28 491.32 851a66.91 66.91 0 0 0 19.89 22.61l.27.19q1.62 1.15 3.31 2.21h.06c.51.31 1 .62 1.53.92l.78.45q1.12.64 2.27 1.23l1.16.59 1.3.62 1.34.6 1.43.62q1 .4 2 .78l1.09.39q.94.33 1.89.64l.78.25c.85.26 1.7.5 2.56.73l.92.23q1.18.29 2.37.55l.44.1c.93.19 1.87.35 2.81.5l.8.12c.92.13 1.84.26 2.77.35h.18c1 .1 2 .17 3 .23h.75c1 0 2 .08 3 .08h.54c.84 0 1.68 0 2.51-.06h.78c1-.05 1.91-.12 2.85-.22h.17c1-.1 2-.23 2.92-.37l.8-.12c.86-.14 1.71-.29 2.55-.46l.38-.07c.93-.19 1.84-.41 2.75-.63l.87-.23q1.11-.29 2.21-.63l.61-.18c.85-.27 1.69-.56 2.53-.86l1-.36q.91-.34 1.81-.72l.87-.36c.76-.33 1.52-.67 2.27-1l1.12-.55 1.4-.72 1.48-.8c.54-.3 1.09-.61 1.62-.93l1.26-.78 1-.64q1.21-.79 2.38-1.63l.64-.46c.47-.34.93-.7 1.39-1.05l.63-.5q2.27-1.8 4.37-3.79l.34-.32q2.21-2.11 4.21-4.42l.13-.14q2.07-2.4 3.92-5 1.87-2.63 3.48-5.44h.15l13.15-22.77 2.9-5h.07l271.91-471a61.42 61.42 0 0 0 -52.07-94z" fill="url(#c)"/><path d="m1064.41 82.76h-231.56a61.51 61.51 0 0 0 0 123c1.62 0 3.21-.08 4.8-.2h104.85a15.52 15.52 0 0 1 13.41 15.37 15.35 15.35 0 0 1 -.89 5.16l-55.28 95.75a61.51 61.51 0 1 0 108 58.91l114.36-198.05q1.57-2.71 2.89-5.58l.11-.25q.81-1.79 1.52-3.63l.08-.19c.21-.56.42-1.13.62-1.7l.3-.88q.4-1.19.75-2.41c.14-.46.27-.93.4-1.39s.23-.89.34-1.33.27-1.15.4-1.73c.09-.41.18-.82.26-1.23q.23-1.17.42-2.36.08-.49.15-1c.12-.84.23-1.69.32-2.54 0-.12 0-.23 0-.35.1-1 .17-2 .22-2.94q0-.38 0-.77c0-1 .08-2 .08-3a66.61 66.61 0 0 0 -66.55-66.66z" fill="url(#d)"/><path d="m708.51 364.76a29.07 29.07 0 0 0 -25.18-14.54h-219.64a29.07 29.07 0 0 0 -25.18 43.61l109.83 190.23a29.07 29.07 0 0 0 50.35 0l109.82-190.22a29.07 29.07 0 0 0 0-29.07z" fill="url(#e)"/></svg>