<svg clip-rule="evenodd" fill-rule="evenodd" stroke-linejoin="round" stroke-miterlimit="1.41421" viewBox="0 0 755 871" xmlns="http://www.w3.org/2000/svg"><path d="m0 216.435 375.822-216.435 378.345 216.435v437.963l-375.823 216.435-378.344-216.435v-437.963z" fill="#f3df49"/><g fill="#2e2e2c" fill-rule="nonzero"><path d="m83.871 382.667c23.45 0 30.625-11.2 30.625-24.85 0-15.75-13.65-20.825-24.5-23.275-10.15-2.275-14.875-2.8-14.875-7 0-2.975 2.625-4.375 8.05-4.375 5.6 0 10.85 2.625 14.35 5.6l12.6-13.475c-6.125-6.3-14.875-10.325-27.125-10.325-15.925 0-28.875 6.825-28.875 23.625 0 15.575 11.375 21.175 21.525 23.8 12.075 3.15 16.8 3.15 16.8 7.175 0 3.15-2.45 4.55-10.15 4.55-7 0-13.475-2.975-18.55-7.875l-13.825 12.25c6.475 7.7 16.625 14.175 33.95 14.175z"/><path d="m159.471 383.017c10.85 0 17.15-3.85 20.825-6.825l-8.925-16.45c-1.575 1.05-4.375 3.15-8.225 3.15-3.675 0-6.125-1.575-6.125-9.1v-27.65h19.075v-19.6h-19.075v-38.85h-23.45v38.85h-11.025v19.6h11.025v26.95c0 22.4 10.85 29.925 25.9 29.925z"/><path d="m238.921 336.817h-17.325c-18.375 0-30.45 6.475-30.45 22.4 0 17.325 12.6 23.45 26.25 23.45 9.975 0 16.45-3.325 22.05-11.9l-.525 10.325h23.45v-42.35c0-23.45-14.525-33.775-33.6-33.775-17.5 0-25.375 5.425-32.375 12.25l13.125 14c3.325-2.975 8.05-6.825 16.975-6.825 7.875 0 12.075 3.85 12.425 12.425zm0 14v2.975c0 6.3-4.9 10.5-14.525 10.5-6.65 0-10.15-2.45-10.15-6.65s2.625-6.825 8.575-6.825z"/><path d="m280.396 381.092h23.625v-39.9c0-9.45 5.6-14.7 15.05-14.7 8.4 0 12.425 4.725 12.425 13.125v41.475h23.625v-43.05c0-21.175-11.725-33.075-28-33.075-10.325 0-19.075 4.9-23.625 13.825l.525-12.25h-23.625z"/><path d="m404.471 382.667c11.375 0 19.25-4.55 23.45-12.425l-.525 10.85h23.625v-126.35h-23.625v62.3c-4.725-7.35-11.375-12.075-23.275-12.075-18.025 0-33.425 15.75-33.425 38.675s15.575 39.025 33.775 39.025zm6.825-20.65c-9.975 0-16.275-6.65-16.275-18.375 0-11.025 6.3-17.85 16.275-17.85 10.15 0 16.8 6.825 16.8 17.85 0 11.725-6.65 18.375-16.8 18.375z"/><path d="m513.496 336.817h-17.325c-18.375 0-30.45 6.475-30.45 22.4 0 17.325 12.6 23.45 26.25 23.45 9.975 0 16.45-3.325 22.05-11.9l-.525 10.325h23.45v-42.35c0-23.45-14.525-33.775-33.6-33.775-17.5 0-25.375 5.425-32.375 12.25l13.125 14c3.325-2.975 8.05-6.825 16.975-6.825 7.875 0 12.075 3.85 12.425 12.425zm0 14v2.975c0 6.3-4.9 10.5-14.525 10.5-6.65 0-10.15-2.45-10.15-6.65s2.625-6.825 8.575-6.825z"/><path d="m554.971 381.092h23.625v-33.075c0-15.925 5.775-20.825 16.45-20.825 3.325 0 6.125.875 9.1 2.275l7.525-21.525c-2.975-1.575-6.65-2.975-11.55-2.975-7.7 0-16.45 2.8-21.875 15.05l.35-13.475h-23.625z"/><path d="m652.271 382.667c11.375 0 19.25-4.55 23.45-12.425l-.525 10.85h23.625v-126.35h-23.625v62.3c-4.725-7.35-11.375-12.075-23.275-12.075-18.025 0-33.425 15.75-33.425 38.675s15.575 39.025 33.775 39.025zm6.825-20.65c-9.975 0-16.275-6.65-16.275-18.375 0-11.025 6.3-17.85 16.275-17.85 10.15 0 16.8 6.825 16.8 17.85 0 11.725-6.65 18.375-16.8 18.375z"/><path d="m285.365 658.563c38.75 0 65.312-20.625 65.312-65.938v-149.375h-43.75v148.75c0 21.875-9.062 27.5-23.437 27.5-15 0-21.25-10.312-28.125-22.5l-35.625 21.563c10.312 21.875 30.625 40 65.625 40z"/><path d="m454.115 658.563c41.562 0 72.5-21.563 72.5-60.938 0-36.562-20.938-52.813-58.125-68.75l-10.938-4.688c-18.75-8.124-26.875-13.437-26.875-26.562 0-10.625 8.125-18.75 20.938-18.75 12.5 0 20.625 5.313 28.125 18.75l34.062-21.875c-14.375-25.312-34.375-35-62.187-35-39.063 0-64.063 25-64.063 57.813 0 35.625 20.938 52.5 52.5 65.937l10.938 4.688c20 8.75 31.875 14.062 31.875 29.062 0 12.5-11.563 21.563-29.688 21.563-21.562 0-33.75-11.25-43.125-26.563l-35.625 20.625c12.813 25.313 39.063 44.688 79.688 44.688z"/></g></svg>